<mxfile host="app.diagrams.net" modified="2023-10-07T07:09:00.261Z" agent="Mozilla/5.0 (Windows NT 10.0; Win64; x64) AppleWebKit/537.36 (KHTML, like Gecko) Chrome/117.0.0.0 Safari/537.36" version="22.0.4" etag="n3AokC9Laql0BN0xOCrA" type="github">
  <diagram name="Page-1" id="f4SZHrQI7HfZwBXOuh6o">
    <mxGraphModel>
      <root>
        <mxCell id="0" />
        <mxCell id="1" parent="0" />
      </root>
    </mxGraphModel>
  </diagram>
</mxfile>
